<?xml version="1.0" encoding="utf-8" ?><svg xmlns="http://www.w3.org/2000/svg" xmlns:xlink="http://www.w3.org/1999/xlink" width="2048" height="2048" viewBox="0 0 2048 2048"><path fill="#03060C" d="M0 0L407.352 0L1642.48 0L2048 0L2048 408.379L2048 1639.87L2048 2048L1642.84 2048L402.432 2048L0 2048L0 1641.83L0 407.26L0 0Z"/><path fill="#03060C" d="M2048 1639.87L2048 2048L1642.84 2048C1658.88 2045.08 1680.26 2044.43 1699.29 2041C1763.17 2028.95 1823.48 2002.55 1875.67 1963.78C1956.22 1903.78 2013.08 1817.35 2036.28 1719.63C2040.12 1702.75 2043.07 1685.68 2045.12 1668.49C2046.17 1659.45 2046.57 1649.49 2047.86 1640.78L2048 1639.87Z"/><path fill="#03060C" d="M1642.48 0L2048 0L2048 408.379C2045.17 392.521 2044.57 371.468 2041.18 352.194C2029.29 285.811 2001.98 223.146 1961.46 169.239C1902.02 90.6562 1817.28 34.9898 1721.56 11.637C1690.63 4.3368 1672.04 3.96942 1642.48 0Z"/><path fill="#03060C" d="M0 0L407.352 0C379.632 3.71837 363.079 3.58313 333.665 10.0225C235.675 31.6592 148.554 87.3921 87.8314 167.286C39.325 230.755 9.52759 306.482 2.16758 385.662C1.49639 392.882 0.913803 400.061 0 407.26L0 0Z"/><path fill="#03060C" d="M0 1641.83C3.59379 1668.55 3.54934 1684.08 9.77601 1712.47C31.4428 1811.65 87.7189 1899.87 168.52 1961.33C220.984 2001.13 281.925 2028.29 346.601 2040.69C366.913 2044.49 382.847 2045.26 402.432 2048L0 2048L0 1641.83Z"/><path fill="#03060C" d="M1023.12 504.039C1026.87 505.115 1023.49 510.844 1025.72 514.779C1030.85 627.699 1098.4 723.447 1151.37 819.194C1181.38 873.439 1210.13 921.443 1212.41 985.267C1213.81 987.682 1213.59 989.639 1213.66 992.33C1214.18 992.675 1319.69 1002.66 1333.87 1004.77C1487.92 1027.67 1659.63 1062.25 1783.32 1163.11C1797.28 1174.49 1818.97 1198.61 1826.66 1214.55C1832.4 1222.44 1836.59 1233.01 1839.88 1243.63C1854.59 1291.15 1832.59 1339.97 1797.9 1372.71C1797.63 1372.89 1797.36 1373.07 1797.09 1373.25C1791.34 1379.74 1784.3 1385.84 1777.63 1391.4C1610.95 1525.03 1278.14 1565.88 1068.03 1570.09C974.907 1571.84 881.767 1567.68 789.173 1557.62C636.291 1540.87 460.283 1506.08 325.488 1429.63C312.63 1422.34 283.407 1403.85 273.276 1394.17C268.267 1391.59 251.216 1375.04 247.121 1370.37C227.87 1354.19 209.277 1320.35 205.114 1295.47C199.178 1259.99 208.589 1230.57 228.781 1201.64C230.665 1199.08 232.592 1196.56 234.561 1194.06C323.762 1081.71 556.631 1026.83 692.948 1007.77C741.366 1001 787.362 998.24 835.216 992.794C835.36 983.183 835.305 971.235 837.543 962.026C839.893 935.374 857.52 895.392 869.414 870.925C930.064 746.159 1019.11 648.244 1023.12 504.039Z"/><path fill="#03060C" d="M1198.43 1058.34C1219.67 1064.69 1247.76 1066.04 1270.3 1071.25C1359.33 1091.85 1470.57 1119.52 1537.04 1186.48C1583.39 1239.62 1577.59 1290.58 1525.95 1337.86C1522.84 1340.71 1503.8 1354.72 1502.84 1356.27C1497.88 1359.18 1492.98 1362.2 1488.14 1365.31C1445.95 1391.81 1385.16 1413.24 1337.45 1426.23C1114.04 1487.07 765.549 1481.96 561.051 1366.21L545.728 1356.21C505.409 1328.6 466.237 1285.38 482.833 1232.46C487.436 1217.78 494.182 1207.66 502.772 1195.13C503.605 1194.62 504.322 1193.64 505.047 1192.85C569.407 1123.14 683.924 1091.95 773.559 1072.29C790.127 1068.65 833.373 1060.65 849.728 1059.91L852.691 1065.91C857.632 1076.82 866.668 1091.34 874.106 1100.74C874.659 1101.35 877.901 1105.04 878.292 1105.33C881.652 1109.48 885.192 1113.49 888.902 1117.33C901.027 1129.81 917.549 1144.03 932.769 1152.63L936.115 1155.33C941.656 1158.21 947.182 1161.11 952.693 1164.03L958.87 1166.37C959.96 1166.87 961.055 1167.34 962.156 1167.81C1006.72 1186.74 1047.23 1182.39 1090.87 1164.68C1097.02 1161.85 1103.48 1158.44 1109.56 1155.37C1131.67 1141.44 1140.01 1135.92 1158.97 1117.44C1164.61 1111.57 1168.08 1107.59 1173.14 1101.21C1183.7 1087.3 1191.54 1074.32 1198.43 1058.34Z"/><path fill="#03060C" d="M669.873 1291.78C667.045 1287.35 662.227 1280.05 660.466 1275.27C622.975 1173.57 824.368 1125.83 888.902 1117.33C901.027 1129.81 917.549 1144.03 932.769 1152.63L936.115 1155.33C941.656 1158.21 947.182 1161.11 952.693 1164.03L958.87 1166.37C959.96 1166.87 961.055 1167.34 962.156 1167.81C1006.72 1186.74 1047.23 1182.39 1090.87 1164.68C1097.02 1161.85 1103.48 1158.44 1109.56 1155.37C1131.67 1141.44 1140.01 1135.92 1158.97 1117.44C1227.54 1126.68 1332 1155.22 1378.11 1210.82C1399.7 1236.84 1396.04 1271.64 1373.32 1296.52C1371.23 1298.95 1369 1301.26 1366.63 1303.43C1287.83 1376.4 1094.24 1397.2 990.808 1392.45C896.416 1388.12 768.61 1370.14 689.721 1311.5C684.091 1307.31 674.895 1297.22 669.873 1291.78Z"/><path fill="#03060C" d="M952.693 1164.03L958.87 1166.37C959.96 1166.87 961.055 1167.34 962.156 1167.81C1006.72 1186.74 1047.23 1182.39 1090.87 1164.68C1134.66 1167.73 1215.51 1189.54 1238.68 1229.31C1256.82 1260.45 1212.95 1290.18 1188.43 1300.5C1092.96 1340.63 978.83 1343.77 881.092 1309.51C854.684 1300.25 794.112 1270.56 811.548 1232.65C828.007 1196.87 883.763 1180.95 919.019 1171.31C928.058 1168.84 944.976 1167.76 952.693 1164.03Z"/><defs><linearGradient id="gradient_0" gradientUnits="userSpaceOnUse" x1="1025.9978" y1="1156.4872" x2="1024.9933" y2="1346.1853"><stop offset="0" stop-color="#191D24"/><stop offset="1" stop-color="#52555E"/></linearGradient></defs><path fill="url(#gradient_0)" d="M936.115 1155.33C941.656 1158.21 947.182 1161.11 952.693 1164.03C944.976 1167.76 928.058 1168.84 919.019 1171.31C883.763 1180.95 828.007 1196.87 811.548 1232.65C794.112 1270.56 854.684 1300.25 881.092 1309.51C978.83 1343.77 1092.96 1340.63 1188.43 1300.5C1212.95 1290.18 1256.82 1260.45 1238.68 1229.31C1215.51 1189.54 1134.66 1167.73 1090.87 1164.68C1097.02 1161.85 1103.48 1158.44 1109.56 1155.37C1119.56 1158.05 1137.11 1159.04 1148.28 1161.36C1183.95 1168.57 1219.35 1178.79 1251.48 1195.93C1276.01 1209.02 1308.44 1237.63 1289.24 1267.67C1267.04 1302.4 1207.18 1323.18 1167.8 1332.18C1048.38 1359.23 906.982 1357.59 796.822 1299.08C772.594 1286.21 743.368 1253.93 765.314 1226.84C804.043 1179.03 878.899 1165.96 936.115 1155.33Z"/><defs><linearGradient id="gradient_1" gradientUnits="userSpaceOnUse" x1="1023.9568" y1="1100.0613" x2="1021.9609" y2="1419.0874"><stop offset="0" stop-color="#1F232B"/><stop offset="1" stop-color="#797C84"/></linearGradient></defs><path fill="url(#gradient_1)" d="M874.106 1100.74C874.659 1101.35 877.901 1105.04 878.292 1105.33C881.652 1109.48 885.192 1113.49 888.902 1117.33C824.368 1125.83 622.975 1173.57 660.466 1275.27C662.227 1280.05 667.045 1287.35 669.873 1291.78C674.895 1297.22 684.091 1307.31 689.721 1311.5C768.61 1370.14 896.416 1388.12 990.808 1392.45C1094.24 1397.2 1287.83 1376.4 1366.63 1303.43C1369 1301.26 1371.23 1298.95 1373.32 1296.52C1396.04 1271.64 1399.7 1236.84 1378.11 1210.82C1332 1155.22 1227.54 1126.68 1158.97 1117.44C1164.61 1111.57 1168.08 1107.59 1173.14 1101.21C1239.17 1109.15 1308.16 1124.79 1368.36 1151.14C1412.57 1170.5 1472.85 1205.21 1467.74 1259.74C1466.97 1268.03 1461.06 1286.64 1454.91 1292.28C1439.72 1316.77 1410.41 1334.94 1385.46 1347.84C1213.52 1436.79 920.606 1437.25 738.148 1378.6C683.595 1361.07 612.085 1333.33 584.509 1279.72C541.45 1178.34 746.792 1122.9 814.606 1110.35C832.983 1106.96 854.808 1105.27 872.199 1101.2L874.106 1100.74Z"/><path fill="#1E222A" d="M1023.12 504.039C1026.87 505.115 1023.49 510.844 1025.72 514.779C1030.85 627.699 1098.4 723.447 1151.37 819.194C1181.38 873.439 1210.13 921.443 1212.41 985.267L1212.05 999.779C1210.33 1015.82 1208.72 1026.25 1204.22 1042.11C1202.34 1047.55 1200.51 1052.96 1198.43 1058.34C1191.54 1074.32 1183.7 1087.3 1173.14 1101.21C1168.08 1107.59 1164.61 1111.57 1158.97 1117.44C1140.01 1135.92 1131.67 1141.44 1109.56 1155.37C1103.48 1158.44 1097.02 1161.85 1090.87 1164.68C1047.23 1182.39 1006.72 1186.74 962.156 1167.81C961.055 1167.34 959.96 1166.87 958.87 1166.37L952.693 1164.03C947.182 1161.11 941.656 1158.21 936.115 1155.33L932.769 1152.63C917.549 1144.03 901.027 1129.81 888.902 1117.33C885.192 1113.49 881.652 1109.48 878.292 1105.33C877.901 1105.04 874.659 1101.35 874.106 1100.74C866.668 1091.34 857.632 1076.82 852.691 1065.91L849.728 1059.91C847.728 1054.53 844.877 1048.37 843.477 1042.82C841.369 1036.78 839.393 1029.38 838.528 1023.06C836.53 1017.42 835.974 1005.81 835.638 999.807L835.216 992.794C835.36 983.183 835.305 971.235 837.543 962.026C839.893 935.374 857.52 895.392 869.414 870.925C930.064 746.159 1019.11 648.244 1023.12 504.039Z"/><path fill="#03060C" d="M1026.33 583.076C1028.69 584.556 1029.41 588.22 1029.93 591.027C1050.1 699.393 1076.85 804.259 1116.72 907.182C1126.81 933.229 1137.59 960.512 1140.35 988.488C1148.57 1086.5 1052.36 1150.86 961.643 1128.97C935.689 1122.71 913.595 1118.16 891.301 1102C889.953 1101.03 887.975 1099.72 886.485 1098.94C878.049 1088.29 870.942 1076.66 865.321 1064.29C844.802 1018.71 847.658 966.896 861.23 919.713C864.395 908.71 870.399 894.206 874.523 883.172C874.503 876.204 876.366 873.558 879.206 867.104C883.627 857.056 883.96 861.847 881.805 852.48C884.778 846.861 887.085 841.726 890.418 836.144C890.924 835.512 890.918 835.522 891.223 834.778C896.762 824.716 904.801 810.383 910.862 800.717C912.972 797.933 913.448 795.298 916.56 790.969C917.602 787.335 926.88 772.369 929.358 767.934L964.953 703.499C979.736 676.134 987.515 657.622 1000.22 629.944C1009.85 621.243 1013.89 610.795 1020.37 600.863C1020.77 598.232 1025.24 586.255 1026.33 583.076Z"/><defs><linearGradient id="gradient_2" gradientUnits="userSpaceOnUse" x1="1003.3721" y1="713.51892" x2="923.32861" y2="705.45087"><stop offset="0" stop-color="#161A24"/><stop offset="1" stop-color="#6F767D"/></linearGradient></defs><path fill="url(#gradient_2)" d="M1000.22 629.944C1009.85 621.243 1013.89 610.795 1020.37 600.863C1019.47 608.309 1011.85 629.091 1009.05 636.906C1000.38 661.047 988.884 690.65 975.81 712.744C956.715 745.013 933.678 776.102 914.807 808.736C914.322 809.492 913.848 810.257 913.386 811.029C912.516 807.516 911.432 804.3 910.862 800.717C912.972 797.933 913.448 795.298 916.56 790.969C917.602 787.335 926.88 772.369 929.358 767.934L964.953 703.499C979.736 676.134 987.515 657.622 1000.22 629.944Z"/><path fill="#626771" d="M916.56 790.969C916.199 794.423 916.14 794.718 914.927 797.932C913.95 800.52 914.794 805.737 914.807 808.736C914.322 809.492 913.848 810.257 913.386 811.029C912.516 807.516 911.432 804.3 910.862 800.717C912.972 797.933 913.448 795.298 916.56 790.969Z"/><defs><linearGradient id="gradient_3" gradientUnits="userSpaceOnUse" x1="915.38916" y1="828.03754" x2="879.27155" y2="833.85608"><stop offset="0" stop-color="#777C85"/><stop offset="1" stop-color="#969CA4"/></linearGradient></defs><path fill="url(#gradient_3)" d="M910.862 800.717C911.432 804.3 912.516 807.516 913.386 811.029C897.487 837.908 888.548 856.784 874.523 883.172C874.503 876.204 876.366 873.558 879.206 867.104C883.627 857.056 883.96 861.847 881.805 852.48C884.778 846.861 887.085 841.726 890.418 836.144C890.924 835.512 890.918 835.522 891.223 834.778C896.762 824.716 904.801 810.383 910.862 800.717Z"/><defs><linearGradient id="gradient_4" gradientUnits="userSpaceOnUse" x1="990.11005" y1="886.80225" x2="900.35144" y2="879.45087"><stop offset="0" stop-color="#0E1219"/><stop offset="1" stop-color="#434851"/></linearGradient></defs><path fill="url(#gradient_4)" d="M1005.74 702.915L1006.29 703.875C1003.9 712.709 986.515 741.822 981.561 751.707C942.677 829.289 889.214 938.733 939.326 1022.51C943.481 1029.45 948.237 1036.02 953.538 1042.13C956.414 1045.39 963.808 1051.44 965.031 1053.82L963.637 1053.67C950.578 1043.86 934.051 1019.45 928.004 1004.23C927.229 1002.28 923.712 990.518 922.659 987.199C922.361 996.813 922.01 1006.42 921.606 1016.03L922.201 1014.03C921.986 1025.48 920.436 1033.93 920.49 1045.25C920.999 1063.6 918.918 1069.9 933.33 1082.9C937.331 1086.51 939.52 1089.93 944.802 1093.22C947.259 1094.75 952.513 1097.7 953.728 1100.03C951.644 1100.16 951.434 1099.44 949.592 1098.25C907.086 1070.66 890.862 1016.07 892.505 967.806C894.881 897.973 926.139 834.547 961.061 775.639C975.563 751.176 990.033 726.578 1005.74 702.915Z"/><defs><linearGradient id="gradient_5" gradientUnits="userSpaceOnUse" x1="946.92175" y1="918.96082" x2="871.25073" y2="907.02637"><stop offset="0" stop-color="#2C3139"/><stop offset="1" stop-color="#666B75"/></linearGradient></defs><path fill="url(#gradient_5)" d="M870.491 916.936C873.901 903.286 878.528 890.37 883.983 877.491C905.641 826.362 936.241 779.856 970.293 736.222C970.702 735.698 971.748 735.429 972.374 735.228L973.261 736.032C920.932 820.698 862.574 909.478 886.461 1015.37C895.912 1057.28 922.417 1095.86 962.5 1113.66L962.971 1115C953.09 1113.66 929.403 1094.32 921.584 1086.17C918.35 1091.99 921.857 1098.58 917.691 1103.69C922.767 1109.01 943.576 1121.41 950.331 1122.37L950.506 1123.13C940.839 1123.67 916.992 1106.21 909.383 1099.4C879.241 1072.41 863.571 1032.52 861.475 992.621C861.284 988.982 860.833 975.772 861.566 972.311C861.704 969.229 861.899 966.149 862.148 963.073C862.286 958.156 862.726 955.135 863.47 950.251C864.535 940.802 867.278 925.924 870.491 916.936Z"/><path fill="#626771" d="M870.491 916.936C871.788 921.561 866.553 951.63 864.792 952.492C864.375 952.183 863.361 950.048 863.47 950.251C864.535 940.802 867.278 925.924 870.491 916.936Z"/><path fill="#626771" d="M862.148 963.073C863.549 965.544 865.741 973.039 862.664 974.38C861.976 974.081 861.806 972.928 861.566 972.311C861.704 969.229 861.899 966.149 862.148 963.073Z"/><defs><linearGradient id="gradient_6" gradientUnits="userSpaceOnUse" x1="1069.009" y1="976.86945" x2="849.09753" y2="1057.0382"><stop offset="0" stop-color="#000612"/><stop offset="1" stop-color="#D9DCE0"/></linearGradient></defs><path fill="url(#gradient_6)" d="M837.543 962.026L838.693 962.301C840.608 960.295 842.834 947.852 843.946 943.916C853.208 911.123 865.665 882.537 881.805 852.48C883.96 861.847 883.627 857.056 879.206 867.104C876.366 873.558 874.503 876.204 874.523 883.172C870.399 894.206 864.395 908.71 861.23 919.713C847.658 966.896 844.802 1018.71 865.321 1064.29C870.942 1076.66 878.049 1088.29 886.485 1098.94C904.371 1125.15 932.348 1139.46 961.675 1148.96C977.842 1152.9 985.882 1154.66 1002.71 1155.35C1018.79 1155.26 1026.76 1153.73 1042.36 1150.79C1044.2 1149.68 1050.52 1148.41 1052.99 1148.19C1057.61 1148.65 1059.23 1148.43 1064 1147.11C1088.95 1139.68 1100.86 1132.7 1117.42 1111.85C1120.38 1114.73 1120.35 1114.32 1120.94 1118.41C1110.61 1127.85 1100.8 1136.35 1089 1144.09C1080.63 1149.57 1071.54 1154.19 1063.22 1159.48C1077.3 1157.2 1091.31 1155.09 1104.78 1150.18L1106.02 1153.5C1092.81 1160.35 1067.93 1172.64 1053.31 1173.99C1034.08 1178.34 1018.58 1178.43 999.222 1175.68C985.495 1173.11 976.084 1169.98 963.097 1165.43C960.765 1165.34 960.922 1165.28 958.87 1166.37L952.693 1164.03C947.182 1161.11 941.656 1158.21 936.115 1155.33L932.769 1152.63C917.549 1144.03 901.027 1129.81 888.902 1117.33C885.192 1113.49 881.652 1109.48 878.292 1105.33C877.901 1105.04 874.659 1101.35 874.106 1100.74C866.668 1091.34 857.632 1076.82 852.691 1065.91L849.728 1059.91C847.728 1054.53 844.877 1048.37 843.477 1042.82C841.369 1036.78 839.393 1029.38 838.528 1023.06C836.53 1017.42 835.974 1005.81 835.638 999.807L835.216 992.794C835.36 983.183 835.305 971.235 837.543 962.026Z"/><path fill="#E6E6E7" d="M878.292 1105.33C881.718 1106.01 906.322 1129.72 910.108 1133.97C915.838 1140.4 932.059 1147.02 932.769 1152.63C917.549 1144.03 901.027 1129.81 888.902 1117.33C885.192 1113.49 881.652 1109.48 878.292 1105.33Z"/><path fill="#E6E6E7" d="M838.528 1023.06C839.023 1022.88 839.838 1022.42 840.423 1022.63C840.641 1022.9 842.254 1030.46 842.29 1031C842.936 1040.74 853.554 1057.13 852.691 1065.91L849.728 1059.91C847.728 1054.53 844.877 1048.37 843.477 1042.82C841.369 1036.78 839.393 1029.38 838.528 1023.06Z"/><path fill="#E6E6E7" d="M1023.12 504.039C1026.87 505.115 1023.49 510.844 1025.72 514.779C1030.85 627.699 1098.4 723.447 1151.37 819.194C1181.38 873.439 1210.13 921.443 1212.41 985.267L1212.05 999.779C1210.33 1015.82 1208.72 1026.25 1204.22 1042.11C1202.34 1047.55 1200.51 1052.96 1198.43 1058.34C1191.54 1074.32 1183.7 1087.3 1173.14 1101.21C1168.08 1107.59 1164.61 1111.57 1158.97 1117.44C1140.01 1135.92 1131.67 1141.44 1109.56 1155.37C1103.48 1158.44 1097.02 1161.85 1090.87 1164.68C1047.23 1182.39 1006.72 1186.74 962.156 1167.81C961.055 1167.34 959.96 1166.87 958.87 1166.37C960.922 1165.28 960.765 1165.34 963.097 1165.43C976.084 1169.98 985.495 1173.11 999.222 1175.68C1018.58 1178.43 1034.08 1178.34 1053.31 1173.99C1067.93 1172.64 1092.81 1160.35 1106.02 1153.5L1104.78 1150.18C1091.31 1155.09 1077.3 1157.2 1063.22 1159.48C1071.54 1154.19 1080.63 1149.57 1089 1144.09C1100.8 1136.35 1110.61 1127.85 1120.94 1118.41C1123.16 1116.61 1125.64 1113.91 1127.56 1111.77L1135.4 1102.92C1157.76 1092.82 1176.41 1076.93 1193.71 1060.06C1197.57 1055.1 1199.61 1047.38 1201.48 1041.45C1219.49 984.323 1205.34 924.917 1177.25 873.246C1175.12 867.936 1160.51 840.18 1157.41 835.973C1156.42 832.514 1142.95 809.374 1140.46 804.986C1139.96 803.285 1139.99 802.845 1138.61 801.912C1131.1 786.804 1118.56 767.711 1110.37 752.264C1106.58 745.108 1093.58 721.18 1089.69 716.152C1088.83 713.625 1074.66 686.879 1072.41 682.635C1065.28 669.172 1060.01 654.858 1053.53 641.805C1044.24 616.541 1037.22 596.048 1031.24 569.707C1029.61 573.939 1027.7 578.774 1026.33 583.076C1025.24 586.255 1020.77 598.232 1020.37 600.863C1013.89 610.795 1009.85 621.243 1000.22 629.944C987.515 657.622 979.736 676.134 964.953 703.499L929.358 767.934C926.88 772.369 917.602 787.335 916.56 790.969C913.448 795.298 912.972 797.933 910.862 800.717C904.801 810.383 896.762 824.716 891.223 834.778C890.918 835.522 890.924 835.512 890.418 836.144C887.085 841.726 884.778 846.861 881.805 852.48C865.665 882.537 853.208 911.123 843.946 943.916C842.834 947.852 840.608 960.295 838.693 962.301L837.543 962.026C839.893 935.374 857.52 895.392 869.414 870.925C930.064 746.159 1019.11 648.244 1023.12 504.039Z"/><defs><linearGradient id="gradient_7" gradientUnits="userSpaceOnUse" x1="1061.8151" y1="1138.2496" x2="1194.9637" y2="1091.8556"><stop offset="0" stop-color="#9297A0"/><stop offset="1" stop-color="#C5C8CB"/></linearGradient></defs><path fill="url(#gradient_7)" d="M1193.71 1060.06C1181.3 1092.75 1147.46 1130.62 1116.92 1147.22L1114.96 1147.37C1111.42 1147.53 1108.08 1148.98 1104.78 1150.18C1091.31 1155.09 1077.3 1157.2 1063.22 1159.48C1071.54 1154.19 1080.63 1149.57 1089 1144.09C1100.8 1136.35 1110.61 1127.85 1120.94 1118.41C1123.16 1116.61 1125.64 1113.91 1127.56 1111.77L1135.4 1102.92C1157.76 1092.82 1176.41 1076.93 1193.71 1060.06Z"/><path fill="#626771" d="M1000.22 629.944C1005.17 613.345 1010.08 600.959 1014.6 582.984L1015.08 581.021C1017.49 571.362 1019.77 559.006 1021.15 549.02C1021.64 545.473 1022.77 531.593 1024.41 530.764C1024.89 531.278 1026.3 541.804 1026.41 543.439C1026.33 544.884 1026.26 544.787 1027 545.997L1027.32 550.116C1027.41 551.382 1027.52 551.528 1027.94 552.737L1028.2 554.392C1028.32 555.713 1028.26 555.539 1028.75 556.755L1028.93 557.696C1029.53 560.678 1031.03 566.927 1031.24 569.707C1029.61 573.939 1027.7 578.774 1026.33 583.076C1025.24 586.255 1020.77 598.232 1020.37 600.863C1013.89 610.795 1009.85 621.243 1000.22 629.944Z"/><path fill="#626771" d="M1104.78 1150.18C1108.08 1148.98 1111.42 1147.53 1114.96 1147.37L1116.92 1147.22C1113.25 1149.05 1109.72 1151.45 1106.02 1153.5L1104.78 1150.18Z"/><path fill="#888B92" d="M1026.41 543.439C1027.19 544.247 1027.12 544.542 1027.02 545.74L1027 545.997C1026.26 544.787 1026.33 544.884 1026.41 543.439Z"/><defs><linearGradient id="gradient_8" gradientUnits="userSpaceOnUse" x1="1091.0028" y1="901.23206" x2="1184.4757" y2="876.14874"><stop offset="0" stop-color="#4C525B"/><stop offset="1" stop-color="#868B92"/></linearGradient></defs><path fill="url(#gradient_8)" d="M1088.55 725.909C1088.48 722.416 1088.49 723.418 1087.11 720.093C1084.79 714.499 1081.68 709.46 1079.53 703.817C1079.07 702.603 1077.34 701.214 1077.41 699.548C1077.25 699.432 1077.35 697.064 1077.97 697.604C1079.82 699.199 1080.67 703.036 1081.85 705.192C1084.15 709.38 1086.77 713.389 1088.71 717.68C1089.34 719.086 1088.89 717.802 1089.21 718.017C1089.37 717.395 1089.53 716.773 1089.69 716.152C1093.58 721.18 1106.58 745.108 1110.37 752.264C1118.56 767.711 1131.1 786.804 1138.61 801.912C1139.99 802.845 1139.96 803.285 1140.46 804.986C1142.95 809.374 1156.42 832.514 1157.41 835.973C1160.51 840.18 1175.12 867.936 1177.25 873.246C1205.34 924.917 1219.49 984.323 1201.48 1041.45C1199.61 1047.38 1197.57 1055.1 1193.71 1060.06C1176.41 1076.93 1157.76 1092.82 1135.4 1102.92C1153.93 1079.79 1167.42 1058.07 1176.86 1029.63C1185.02 1005.47 1188.23 979.919 1186.3 954.496C1179.95 880.026 1122.76 793.776 1088.55 725.909Z"/><path fill="#888B92" d="M1157.41 835.973C1160.51 840.18 1175.12 867.936 1177.25 873.246C1174.21 871.339 1174.29 871.047 1172.81 867.723C1170.86 867.146 1169.88 869.922 1168.25 868.687C1166.73 867.542 1169.65 863.06 1169.4 862.558C1167.21 858.238 1164.85 851.92 1161.86 848.365C1161.86 848.36 1160.72 848.39 1160.7 848.279C1160.26 845.515 1157.93 838.11 1157.41 835.973Z"/><path fill="#A1A4AA" d="M1138.61 801.912C1139.99 802.845 1139.96 803.285 1140.46 804.986C1138.99 804.218 1139.01 803.492 1138.61 801.912Z"/><defs><linearGradient id="gradient_9" gradientUnits="userSpaceOnUse" x1="1089.027" y1="1123.8188" x2="1093.6976" y2="1132.3203"><stop offset="0" stop-color="#666B73"/><stop offset="1" stop-color="#8D929B"/></linearGradient></defs><path fill="url(#gradient_9)" d="M1117.61 1107.82C1117.58 1109.2 1117.54 1110.46 1117.42 1111.85C1100.86 1132.7 1088.95 1139.68 1064 1147.11L1064 1143.95C1083.48 1135.11 1102.55 1123.07 1117.61 1107.82Z"/><path fill="#4B5059" d="M1053.53 641.805C1060.01 654.858 1065.28 669.172 1072.41 682.635C1074.66 686.879 1088.83 713.625 1089.69 716.152C1089.53 716.773 1089.37 717.395 1089.21 718.017C1088.89 717.802 1089.34 719.086 1088.71 717.68C1086.77 713.389 1084.15 709.38 1081.85 705.192C1080.67 703.036 1079.82 699.199 1077.97 697.604C1077.35 697.064 1077.25 699.432 1077.41 699.548C1077.34 701.214 1079.07 702.603 1079.53 703.817C1081.68 709.46 1084.79 714.499 1087.11 720.093C1088.49 723.418 1088.48 722.416 1088.55 725.909C1078.32 708.884 1056.37 660.923 1053.53 641.805Z"/><path fill="#4B5059" d="M1117.61 1107.82C1118.12 1106.6 1123.66 1097.99 1124.93 1100.81C1120.86 1110.01 1115.29 1110.65 1127.56 1111.77C1125.64 1113.91 1123.16 1116.61 1120.94 1118.41C1120.35 1114.32 1120.38 1114.73 1117.42 1111.85C1117.54 1110.46 1117.58 1109.2 1117.61 1107.82Z"/><path fill="#626771" d="M1064 1143.95L1064 1147.11C1059.23 1148.43 1057.61 1148.65 1052.99 1148.19C1056.77 1146.92 1060.27 1145.34 1064 1143.95Z"/><defs><linearGradient id="gradient_10" gradientUnits="userSpaceOnUse" x1="1159.2699" y1="948.11481" x2="1173.5654" y2="941.92609"><stop offset="0" stop-color="#525762"/><stop offset="1" stop-color="#6E747D"/></linearGradient></defs><path fill="url(#gradient_10)" d="M1144.3 895.674C1154.06 901.184 1166.65 921.848 1171.25 931.993C1179.53 950.283 1184.77 976.305 1181.4 996.219C1181.11 996.137 1180.81 996.054 1180.52 995.972C1179.47 993.627 1178.47 983.509 1178.11 980.993C1174.76 957.95 1165.77 933.588 1154.94 913.003C1151.77 906.979 1147.69 901.632 1144.3 895.674Z"/><defs><linearGradient id="gradient_11" gradientUnits="userSpaceOnUse" x1="1147.7352" y1="954.79858" x2="1158.1365" y2="950.0918"><stop offset="0" stop-color="#4E545D"/><stop offset="1" stop-color="#676C76"/></linearGradient></defs><path fill="url(#gradient_11)" d="M1126.92 905.002L1128.11 903.571C1158.71 940.861 1167.71 954.87 1172.38 1004.05L1170.3 1004.56C1166.3 973.855 1146.13 929.375 1126.92 905.002Z"/><path fill="#4B5059" d="M1102.98 1112.05C1104.02 1113.41 1103.45 1113.7 1102.37 1114.83C1090 1127.69 1074.35 1133.75 1057.49 1138.16C1056.76 1137.66 1056.95 1137.85 1056.73 1137.56C1056.92 1136.18 1066.29 1132.74 1067.68 1132.18C1080.71 1126.88 1091.2 1119.34 1102.98 1112.05Z"/><path fill="#4B5059" d="M1146.81 954.773C1150 956.957 1150.04 958.94 1151.44 962.363L1154.32 969.387C1158.69 979.913 1162.24 992.165 1163.33 1003.51C1161.14 1001.99 1160.8 1001.27 1160.21 998.515C1157.02 983.552 1150.93 969.406 1146.81 954.773Z"/><path fill="#4B5059" d="M1172.38 1004.05C1173.15 1006.31 1173.56 1009.87 1172.24 1011.87L1172.62 1011.98L1172.38 1012.2C1170.74 1011.72 1170.51 1006.04 1170.3 1004.56L1172.38 1004.05Z"/><path fill="#4B5059" d="M1126.92 905.002C1119.03 896.768 1126.37 899.026 1128.11 903.571L1126.92 905.002Z"/><defs><linearGradient id="gradient_12" gradientUnits="userSpaceOnUse" x1="1027.5311" y1="1365.3396" x2="1027.0568" y2="1497.1873"><stop offset="0" stop-color="#ACAEB4"/><stop offset="1" stop-color="#E7E8E9"/></linearGradient></defs><path fill="url(#gradient_12)" d="M561.051 1366.21C765.549 1481.96 1114.04 1487.07 1337.45 1426.23C1385.16 1413.24 1445.95 1391.81 1488.14 1365.31C1493.67 1370.29 1498.87 1373.05 1506.52 1371.63C1525.03 1368.2 1539.45 1370.63 1557.46 1371.89C1567.91 1372.61 1579.05 1369.72 1590.01 1372.82C1593.42 1373.37 1594.92 1368.32 1602.77 1372.46C1488.38 1456.95 1279.26 1485.5 1139.86 1495.86C1020.75 1504.71 893.143 1499.2 774.945 1482.22C683.421 1468.22 540.213 1437.44 463.189 1384.61C461.77 1382 458.787 1379.55 456.648 1377.05C458.362 1374.9 539.906 1369.55 548.107 1369.52C553.504 1369.49 555.785 1368.46 561.051 1366.21Z"/><defs><linearGradient id="gradient_13" gradientUnits="userSpaceOnUse" x1="1019.0663" y1="1379.363" x2="1017.31" y2="1568.291"><stop offset="0" stop-color="#A4A7AD"/><stop offset="1" stop-color="#F3F4F4"/></linearGradient></defs><path fill="url(#gradient_13)" d="M247.121 1370.37C257.372 1366.52 253.597 1371.86 263.965 1369.86C274.786 1367.78 290.436 1367.76 301.15 1369.81C303.498 1370.26 306.404 1371.16 308.796 1371.8C310.222 1372.71 334.072 1393.23 334.098 1393.27C343.715 1398.99 352.629 1406.05 362.05 1412.13C374.667 1420.26 388.046 1427.36 401.405 1434.19C512.118 1490.82 640.251 1517.95 762.909 1533.81C1024.79 1567.67 1434.24 1554.26 1666.4 1423.55C1687.39 1411.73 1706.68 1398.17 1725.73 1383.47C1726.8 1385.74 1725.27 1386.27 1725.78 1386.97C1727.58 1389.25 1732.8 1385.98 1733.59 1386.52C1739.1 1390.32 1750.41 1388.11 1757.85 1388.36C1762.74 1388.52 1770.58 1389.45 1775.22 1388.69C1776.02 1389.6 1776.82 1390.5 1777.63 1391.4C1610.95 1525.03 1278.14 1565.88 1068.03 1570.09C974.907 1571.84 881.767 1567.68 789.173 1557.62C636.291 1540.87 460.283 1506.08 325.488 1429.63C312.63 1422.34 283.407 1403.85 273.276 1394.17C268.267 1391.59 251.216 1375.04 247.121 1370.37Z"/><path fill="#A1A4AA" d="M247.121 1370.37C257.372 1366.52 253.597 1371.86 263.965 1369.86C274.786 1367.78 290.436 1367.76 301.15 1369.81C303.498 1370.26 306.404 1371.16 308.796 1371.8C310.222 1372.71 334.072 1393.23 334.098 1393.27C329.757 1394.07 315.975 1379.48 305.013 1385.33C303.862 1385.94 286.476 1382.23 283.946 1384.29C277.773 1387.09 275.394 1381.89 274.5 1381.58C267.686 1384.86 267.307 1382.21 263.153 1383.56C263.795 1385.52 273.472 1389.55 273.276 1394.17C268.267 1391.59 251.216 1375.04 247.121 1370.37Z"/><defs><linearGradient id="gradient_14" gradientUnits="userSpaceOnUse" x1="612.0686" y1="1042.8605" x2="611.87402" y2="1365.1068"><stop offset="0" stop-color="#181B24"/><stop offset="1" stop-color="#A2A6AB"/></linearGradient></defs><path fill="url(#gradient_14)" d="M415.274 1182.59C420.057 1176.78 436.51 1163.75 442.724 1159.45C521.93 1104.63 635.534 1075.09 728.824 1058.79C752.64 1054.68 776.541 1051.08 800.51 1047.98C813.175 1046.43 830.411 1045.2 842.445 1043.02L843.477 1042.82C844.877 1048.37 847.728 1054.53 849.728 1059.91C833.373 1060.65 790.127 1068.65 773.559 1072.29C683.924 1091.95 569.407 1123.14 505.047 1192.85C504.322 1193.64 503.605 1194.62 502.772 1195.13C494.182 1207.66 487.436 1217.78 482.833 1232.46C466.237 1285.38 505.409 1328.6 545.728 1356.21L561.051 1366.21C555.785 1368.46 553.504 1369.49 548.107 1369.52C539.906 1369.55 458.362 1374.9 456.648 1377.05C458.787 1379.55 461.77 1382 463.189 1384.61C452.979 1378.56 444.381 1372.94 435.2 1365.39C401.489 1343 371.024 1299.4 375.149 1257.77C377.926 1229.73 394.095 1200.64 415.274 1182.59Z"/><path fill="#A1A4AA" d="M545.728 1356.21L561.051 1366.21C555.785 1368.46 553.504 1369.49 548.107 1369.52C539.906 1369.55 458.362 1374.9 456.648 1377.05C458.787 1379.55 461.77 1382 463.189 1384.61C452.979 1378.56 444.381 1372.94 435.2 1365.39L436.15 1363.98C445.049 1364.84 475.136 1362.68 485.966 1363.3C488.049 1363.42 489.061 1360.74 494.369 1359.97C496.602 1362.19 496.455 1362.13 499.275 1363.5C506.51 1362.68 501.125 1360.19 507.495 1358.65C519.819 1355.67 536.372 1363.15 545.728 1356.21Z"/><defs><linearGradient id="gradient_15" gradientUnits="userSpaceOnUse" x1="1437.093" y1="1045.0159" x2="1431.7222" y2="1356.7555"><stop offset="0" stop-color="#181C24"/><stop offset="1" stop-color="#A0A4A9"/></linearGradient></defs><path fill="url(#gradient_15)" d="M1198.43 1058.34C1200.51 1052.96 1202.34 1047.55 1204.22 1042.11C1210.22 1044.1 1233.32 1046.12 1240.93 1046.99C1259.49 1049.1 1278 1051.64 1296.45 1054.58C1393.87 1070.5 1503.65 1097.2 1588.79 1148.71C1600.63 1155.87 1621.45 1170.72 1630.82 1180.68C1679.82 1221.22 1687.33 1288.4 1645.03 1334.92C1638.74 1341.83 1628.63 1353.41 1620.9 1358.36C1616.46 1362.36 1607.92 1369.57 1602.77 1372.46C1594.92 1368.32 1593.42 1373.37 1590.01 1372.82C1579.05 1369.72 1567.91 1372.61 1557.46 1371.89C1539.45 1370.63 1525.03 1368.2 1506.52 1371.63C1498.87 1373.05 1493.67 1370.29 1488.14 1365.31C1492.98 1362.2 1497.88 1359.18 1502.84 1356.27C1503.8 1354.72 1522.84 1340.71 1525.95 1337.86C1577.59 1290.58 1583.39 1239.62 1537.04 1186.48C1470.57 1119.52 1359.33 1091.85 1270.3 1071.25C1247.76 1066.04 1219.67 1064.69 1198.43 1058.34Z"/><path fill="#A1A4AA" d="M1502.84 1356.27L1504.34 1357.07C1516.09 1351.45 1598.47 1365.72 1619.24 1356.88L1620.9 1358.36C1616.46 1362.36 1607.92 1369.57 1602.77 1372.46C1594.92 1368.32 1593.42 1373.37 1590.01 1372.82C1579.05 1369.72 1567.91 1372.61 1557.46 1371.89C1539.45 1370.63 1525.03 1368.2 1506.52 1371.63C1498.87 1373.05 1493.67 1370.29 1488.14 1365.31C1492.98 1362.2 1497.88 1359.18 1502.84 1356.27Z"/><defs><linearGradient id="gradient_16" gradientUnits="userSpaceOnUse" x1="1537.6433" y1="1009.9399" x2="1510.4187" y2="1351.7122"><stop offset="0" stop-color="#13171F"/><stop offset="1" stop-color="#8F949A"/></linearGradient></defs><path fill="url(#gradient_16)" d="M1212.41 985.267C1213.81 987.682 1213.59 989.639 1213.66 992.33C1214.18 992.675 1319.69 1002.66 1333.87 1004.77C1487.92 1027.67 1659.63 1062.25 1783.32 1163.11C1797.28 1174.49 1818.97 1198.61 1826.66 1214.55C1832.4 1222.44 1836.59 1233.01 1839.88 1243.63C1854.59 1291.15 1832.59 1339.97 1797.9 1372.71C1797.63 1372.89 1797.36 1373.07 1797.09 1373.25C1791.34 1379.74 1784.3 1385.84 1777.63 1391.4C1776.82 1390.5 1776.02 1389.6 1775.22 1388.69C1770.58 1389.45 1762.74 1388.52 1757.85 1388.36C1750.41 1388.11 1739.1 1390.32 1733.59 1386.52C1732.8 1385.98 1727.58 1389.25 1725.78 1386.97C1725.27 1386.27 1726.8 1385.74 1725.73 1383.47C1726.95 1381.92 1737.6 1372.65 1739.07 1371.83C1757.2 1350.7 1771.09 1339.24 1781.95 1312C1796.45 1275.62 1792.11 1246.07 1774.71 1212.18C1770.21 1204.6 1765.42 1197.38 1759.92 1190.47C1678.71 1088.47 1468.4 1036.59 1344.33 1016.1C1300.43 1008.85 1256.22 1004.83 1212.05 999.779L1212.41 985.267Z"/><path fill="#A1A4AA" d="M1739.07 1371.83C1743.17 1370.58 1744.53 1367.77 1748.48 1369.2C1754.99 1371.15 1771.09 1366.97 1775.71 1370.99C1777.54 1372.58 1779.6 1370.68 1781.54 1370.63C1785.91 1370.52 1786.25 1374.49 1792.26 1371.71C1794.49 1370.67 1795.66 1371.55 1797.09 1373.25C1791.34 1379.74 1784.3 1385.84 1777.63 1391.4C1776.82 1390.5 1776.02 1389.6 1775.22 1388.69C1770.58 1389.45 1762.74 1388.52 1757.85 1388.36C1750.41 1388.11 1739.1 1390.32 1733.59 1386.52C1732.8 1385.98 1727.58 1389.25 1725.78 1386.97C1725.27 1386.27 1726.8 1385.74 1725.73 1383.47C1726.95 1381.92 1737.6 1372.65 1739.07 1371.83Z"/><defs><linearGradient id="gradient_17" gradientUnits="userSpaceOnUse" x1="508.92264" y1="1019.8807" x2="536.78766" y2="1350.6415"><stop offset="0" stop-color="#14181F"/><stop offset="1" stop-color="#91969C"/></linearGradient></defs><path fill="url(#gradient_17)" d="M228.781 1201.64C230.665 1199.08 232.592 1196.56 234.561 1194.06C323.762 1081.71 556.631 1026.83 692.948 1007.77C741.366 1001 787.362 998.24 835.216 992.794L835.638 999.807L833.723 1000.22C823.984 1002.22 799.79 1002.97 787.919 1004.54C756.867 1008.66 724.212 1013.28 693.409 1018.26C573.224 1037.67 353.088 1094.27 280.746 1201.16C277.482 1206.01 274.419 1210.98 271.563 1216.07C265.264 1230.61 259.818 1243.32 258.177 1259.18C253.404 1305.33 278.08 1340.35 308.796 1371.8C306.404 1371.16 303.498 1370.26 301.15 1369.81C290.436 1367.76 274.786 1367.78 263.965 1369.86C253.597 1371.86 257.372 1366.52 247.121 1370.37C227.87 1354.19 209.277 1320.35 205.114 1295.47C199.178 1259.99 208.589 1230.57 228.781 1201.64Z"/><path fill="#626771" d="M1023.12 504.039C1022.65 500.221 1022.5 472.797 1024.44 471.576C1025.92 477.788 1026.57 508.53 1025.72 514.779C1023.49 510.844 1026.87 505.115 1023.12 504.039Z"/></svg>